# xmcd
# 
# Track frame offsets:
#     187
#     25535
#     51425
#     70632
#     98860
#     123922
#     148222
#     175617
#     203590
#     224805
#     248482
#     268245
# 
# Disc length: 3849
# 
# Revision: 1
# Processed by: cddbd v1.5.2PL0 Copyright (c) Steve Scherf et al.
# Submitted via: fre:ac v1.0.17
# 
DISCID=ae0f070c
DTITLE=Glenn Hughes - L.A. BLUES AUTHORITY VOLUME II - BLUES
DYEAR=1993
DGENRE=Blues
TTITLE0=The Boy Can Sing The Blues
TTITLE1=I'm The Man
TTITLE2=Here Come The Rebel
TTITLE3=What Can I Do For Ya?
TTITLE4=You Don't Have To Save Me Anymore
TTITLE5=So Much Love To Give 
TTITLE6=Shake The Ground
TTITLE7=Hey Buddy (You Got Me Wrong)
TTITLE8=Have You ReadThe Book?
TTITLE9=Life Of Misery
TTITLE10=Can't Take Away My Pride
TTITLE11=A Right To Live
EXTD=
EXTT0=
EXTT1=
EXTT2=
EXTT3=
EXTT4=
EXTT5=
EXTT6=
EXTT7=
EXTT8=
EXTT9=
EXTT10=
EXTT11=
PLAYORDER=
